{
  "source": "C:\\Users\\Peter\\Desktop\\stuff\\MIUN\\quantitative_research\\video_compression\\videos\\BVI-HD\\BVI-HD_CDVL_videos\\ORIG\\CloudsZoom_1920x1080_60fps.mp4",
  "output": "C:\\Users\\Peter\\Desktop\\stuff\\MIUN\\quantitative_research\\video_compression\\compressed_videos\\BVI-HD\\av1\\1.5\\CloudsZoom_1920x1080_60fps_av1.mkv",
  "codec": "av1",
  "ok": "Input #0, mov,mp4,m4a,3gp,3g2,mj2, from 'C:\\Users\\Peter\\Desktop\\stuff\\MIUN\\quantitative_research\\video_compression\\videos\\BVI-HD\\BVI-HD_CDVL_videos\\ORIG\\CloudsZoom_1920x1080_60fps.mp4':\n  Metadata:\n    major_brand     : isom\n    minor_version   : 512\n    compatible_brands: isomiso2avc1mp41\n    encoder         : Lavf54.28.101\n  Duration: 00:00:05.00, start: 0.000000, bitrate: 32589 kb/s\n  Stream #0:0[0x1](und): Video: h264 (High 4:4:4 Predictive) (avc1 / 0x31637661), yuv420p(progressive), 1920x1080, 32586 kb/s, 60 fps, 60 tbr, 60 tbn (default)\n    Metadata:\n      handler_name    : VideoHandler\n      vendor_id       : [0][0][0][0]\n[out#0/matroska @ 000002aa473390c0] Codec AVOption b:a (set bitrate (in bits/s)) has not been used for any stream. The most likely reason is either wrong type (e.g. a video option with no video streams) or that it is a private option of some decoder which was not actually used for any stream.\nStream mapping:\n  Stream #0:0 -> #0:0 (h264 (native) -> av1 (libsvtav1))\nPress [q] to stop, [?] for help\nSvt[info]: -------------------------------------------\nSvt[info]: SVT [version]:\tSVT-AV1 Encoder Lib v3.1.0-19-g6ecfe8ec\nSvt[info]: SVT [build]  :\tGCC 15.2.0\t 64 bit\nSvt[info]: LIB Build date: Aug 17 2025 11:37:13\nSvt[info]: -------------------------------------------\nSvt[info]: Level of Parallelism: 5\nSvt[info]: Number of PPCS 93\nSvt[info]: [asm level on system : up to avx2]\nSvt[info]: [asm level selected : up to avx2]\nSvt[info]: -------------------------------------------\nSvt[info]: SVT [config]: main profile\ttier (auto)\tlevel (auto)\nSvt[info]: SVT [config]: width / height / fps numerator / fps denominator \t\t: 1920 / 1080 / 60 / 1\nSvt[info]: SVT [config]: bit-depth / color format \t\t\t\t\t: 8 / YUV420\nSvt[info]: SVT [config]: preset / tune / pred struct \t\t\t\t\t: 4 / PSNR / random access\nSvt[info]: SVT [config]: gop size / mini-gop size / key-frame type \t\t\t: 321 / 16 / key frame\nSvt[info]: SVT [config]: BRC mode / target bitrate (kbps)\t\t\t\t: VBR / 1500 \nSvt[info]: SVT [config]: AQ mode / Variance Boost \t\t\t\t\t: 2 / 0\nSvt[info]: SVT [config]: sharpness / luminance-based QP bias \t\t\t\t: 0 / 0\nSvt[info]: SVT [config]: QP scale compress strength \t\t\t\t\t: 0\nSvt[info]: -------------------------------------------\nOutput #0, matroska, to 'C:\\Users\\Peter\\Desktop\\stuff\\MIUN\\quantitative_research\\video_compression\\compressed_videos\\BVI-HD\\av1\\1.5\\CloudsZoom_1920x1080_60fps_av1.mkv':\n  Metadata:\n    major_brand     : isom\n    minor_version   : 512\n    compatible_brands: isomiso2avc1mp41\n    encoder         : Lavf62.3.100\n  Stream #0:0(und): Video: av1 (AV01 / 0x31305641), yuv420p(tv, progressive), 1920x1080, q=2-31, 1500 kb/s, 60 fps, 1k tbn (default)\n    Metadata:\n      encoder         : Lavc62.11.100 libsvtav1\n      handler_name    : VideoHandler\n      vendor_id       : [0][0][0][0]\n    Side data:\n      cpb: bitrate max/min/avg: 0/0/1500000 buffer size: 1500000 vbv_delay: N/A\nframe=    0 fps=0.0 q=0.0 size=       0KiB time=N/A bitrate=N/A speed=N/A elapsed=0:00:00.51    \nframe=    0 fps=0.0 q=0.0 size=       0KiB time=N/A bitrate=N/A speed=N/A elapsed=0:00:01.08    \nframe=    0 fps=0.0 q=0.0 size=       0KiB time=N/A bitrate=N/A speed=N/A elapsed=0:00:01.62    \nframe=    0 fps=0.0 q=0.0 size=       0KiB time=N/A bitrate=N/A speed=N/A elapsed=0:00:02.14    \nframe=    5 fps=1.9 q=29.0 size=       1KiB time=00:00:00.06 bitrate=  85.4kbits/s speed=0.0252x elapsed=0:00:02.65    \nframe=   13 fps=4.1 q=29.0 size=       1KiB time=00:00:00.20 bitrate=  28.5kbits/s speed=0.0631x elapsed=0:00:03.17    \nframe=   26 fps=7.0 q=21.0 size=       1KiB time=00:00:00.41 bitrate=  13.7kbits/s speed=0.113x elapsed=0:00:03.69    \nframe=   30 fps=7.1 q=20.0 size=       1KiB time=00:00:00.48 bitrate=  11.8kbits/s speed=0.115x elapsed=0:00:04.21    \nframe=   37 fps=7.8 q=14.0 size=       1KiB time=00:00:00.60 bitrate=   9.5kbits/s speed=0.127x elapsed=0:00:04.72    \nframe=   44 fps=8.3 q=13.0 size=       1KiB time=00:00:00.70 bitrate=   8.1kbits/s speed=0.132x elapsed=0:00:05.29    \nframe=   47 fps=8.1 q=13.0 size=       1KiB time=00:00:00.76 bitrate=   7.4kbits/s speed=0.132x elapsed=0:00:05.82    \nframe=   50 fps=7.9 q=11.0 size=       1KiB time=00:00:00.81 bitrate=   7.0kbits/s speed=0.129x elapsed=0:00:06.33    \nframe=   55 fps=8.0 q=10.0 size=       1KiB time=00:00:00.90 bitrate=   6.3kbits/s speed=0.131x elapsed=0:00:06.86    \nframe=   59 fps=8.0 q=15.0 size=       1KiB time=00:00:00.96 bitrate=   5.9kbits/s speed=0.131x elapsed=0:00:07.38    \nframe=   66 fps=8.4 q=11.0 size=       1KiB time=00:00:01.08 bitrate=   5.3kbits/s speed=0.137x elapsed=0:00:07.88    \nframe=   70 fps=8.3 q=11.0 size=       1KiB time=00:00:01.15 bitrate=   5.0kbits/s speed=0.137x elapsed=0:00:08.40    \nframe=   75 fps=8.4 q=12.0 size=       1KiB time=00:00:01.23 bitrate=   4.6kbits/s speed=0.138x elapsed=0:00:08.92    \nframe=   82 fps=8.7 q=12.0 size=       1KiB time=00:00:01.35 bitrate=   4.2kbits/s speed=0.143x elapsed=0:00:09.45    \nframe=   86 fps=8.6 q=11.0 size=       1KiB time=00:00:01.41 bitrate=   4.0kbits/s speed=0.142x elapsed=0:00:09.97    \nframe=   92 fps=8.8 q=9.0 size=       1KiB time=00:00:01.51 bitrate=   3.8kbits/s speed=0.144x elapsed=0:00:10.50    \nframe=   97 fps=8.8 q=2.0 size=       1KiB time=00:00:01.60 bitrate=   3.6kbits/s speed=0.145x elapsed=0:00:11.00    \nframe=  103 fps=8.9 q=12.0 size=       1KiB time=00:00:01.70 bitrate=   3.4kbits/s speed=0.147x elapsed=0:00:11.52    \nframe=  109 fps=9.0 q=12.0 size=       1KiB time=00:00:01.80 bitrate=   3.2kbits/s speed=0.149x elapsed=0:00:12.05    \nframe=  115 fps=9.2 q=11.0 size=       1KiB time=00:00:01.90 bitrate=   3.0kbits/s speed=0.151x elapsed=0:00:12.56    \nframe=  119 fps=9.1 q=11.0 size=       1KiB time=00:00:01.96 bitrate=   2.9kbits/s speed=0.15x elapsed=0:00:13.09    \nframe=  125 fps=9.2 q=11.0 size=       1KiB time=00:00:02.06 bitrate=   2.8kbits/s speed=0.152x elapsed=0:00:13.62    \nframe=  131 fps=9.3 q=13.0 size=       1KiB time=00:00:02.16 bitrate=   2.6kbits/s speed=0.153x elapsed=0:00:14.14    \nframe=  136 fps=9.3 q=12.0 size=       1KiB time=00:00:02.25 bitrate=   2.5kbits/s speed=0.153x elapsed=0:00:14.68    \nframe=  142 fps=9.3 q=12.0 size=       1KiB time=00:00:02.35 bitrate=   2.4kbits/s speed=0.155x elapsed=0:00:15.20    \nframe=  146 fps=9.3 q=12.0 size=       1KiB time=00:00:02.41 bitrate=   2.4kbits/s speed=0.154x elapsed=0:00:15.71    \nframe=  150 fps=9.2 q=12.0 size=       1KiB time=00:00:02.48 bitrate=   2.3kbits/s speed=0.153x elapsed=0:00:16.23    \nframe=  155 fps=9.2 q=13.0 size=       1KiB time=00:00:02.56 bitrate=   2.2kbits/s speed=0.153x elapsed=0:00:16.76    \nframe=  161 fps=9.3 q=2.0 size=       1KiB time=00:00:02.66 bitrate=   2.1kbits/s speed=0.154x elapsed=0:00:17.27    \nframe=  166 fps=9.3 q=14.0 size=       1KiB time=00:00:02.75 bitrate=   2.1kbits/s speed=0.154x elapsed=0:00:17.80    \nframe=  173 fps=9.4 q=11.0 size=       1KiB time=00:00:02.85 bitrate=   2.0kbits/s speed=0.156x elapsed=0:00:18.32    \nframe=  179 fps=9.5 q=14.0 size=       1KiB time=00:00:02.96 bitrate=   1.9kbits/s speed=0.157x elapsed=0:00:18.85    \nframe=  186 fps=9.6 q=15.0 size=       1KiB time=00:00:03.08 bitrate=   1.8kbits/s speed=0.159x elapsed=0:00:19.38    \nframe=  192 fps=9.6 q=9.0 size=       1KiB time=00:00:03.18 bitrate=   1.8kbits/s speed=0.16x elapsed=0:00:19.90    \nframe=  199 fps=9.7 q=14.0 size=       1KiB time=00:00:03.30 bitrate=   1.7kbits/s speed=0.162x elapsed=0:00:20.42    \nframe=  209 fps= 10 q=2.0 size=       1KiB time=00:00:03.46 bitrate=   1.6kbits/s speed=0.166x elapsed=0:00:20.94    \nframe=  213 fps=9.9 q=13.0 size=       1KiB time=00:00:03.53 bitrate=   1.6kbits/s speed=0.165x elapsed=0:00:21.44    \nframe=  223 fps= 10 q=15.0 size=       1KiB time=00:00:03.70 bitrate=   1.5kbits/s speed=0.168x elapsed=0:00:21.97    \nframe=  225 fps= 10 q=2.0 size=       1KiB time=00:00:03.73 bitrate=   1.5kbits/s speed=0.166x elapsed=0:00:22.47    \nframe=  233 fps= 10 q=10.0 size=       1KiB time=00:00:03.86 bitrate=   1.5kbits/s speed=0.168x elapsed=0:00:22.99    \nframe=  241 fps= 10 q=3.0 size=       1KiB time=00:00:04.00 bitrate=   1.4kbits/s speed=0.17x elapsed=0:00:23.51    \nframe=  247 fps= 10 q=14.0 size=       1KiB time=00:00:04.06 bitrate=   1.4kbits/s speed=0.169x elapsed=0:00:24.02    \nframe=  253 fps= 10 q=12.0 size=       1KiB time=00:00:04.20 bitrate=   1.4kbits/s speed=0.171x elapsed=0:00:24.56    \nframe=  261 fps= 10 q=12.0 size=       1KiB time=00:00:04.33 bitrate=   1.3kbits/s speed=0.173x elapsed=0:00:25.07    \nframe=  269 fps= 11 q=12.0 size=       1KiB time=00:00:04.46 bitrate=   1.3kbits/s speed=0.175x elapsed=0:00:25.59    \nframe=  273 fps= 10 q=2.0 size=       1KiB time=00:00:04.53 bitrate=   1.3kbits/s speed=0.174x elapsed=0:00:26.12    \nframe=  283 fps= 11 q=18.0 size=       1KiB time=00:00:04.70 bitrate=   1.2kbits/s speed=0.176x elapsed=0:00:26.64    \n[out#0/matroska @ 000002aa473390c0] video:781KiB audio:0KiB subtitle:0KiB other streams:0KiB global headers:0KiB muxing overhead: 0.263823%\nframe=  300 fps= 11 q=35.0 Lsize=     783KiB time=00:00:04.98 bitrate=1287.3kbits/s speed=0.185x elapsed=0:00:26.91    \n",
  "seconds": 27.57367992401123,
  "probe_out": {}
}